<?xml version="1.0" ?><!DOCTYPE svg  PUBLIC '-//W3C//DTD SVG 1.1//EN'  'http://www.w3.org/Graphics/SVG/1.1/DTD/svg11.dtd'><svg enable-background="new 0 0 512 512" height="512px" id="Calque_1" version="1.1" viewBox="0 0 512 512" width="512px" xml:space="preserve" xmlns="http://www.w3.org/2000/svg" xmlns:xlink="http://www.w3.org/1999/xlink"><g><polygon fill="#D712F9" points="266,135.677 266,472.55 304.696,442.688 341.709,108.995 303.854,122.336  "/><polygon fill="#D712F9" points="256,31.734 179.267,90.95 256,117.994 332.733,90.951  "/><polygon fill="#D712F9" points="207.304,442.688 246,472.55 246,135.677 170.291,108.995  "/></g><g opacity="0.3"><polygon points="205.25,90.978 268.98,113.438 255.98,118.018 179.25,90.978 255.98,31.757 268.98,41.787  "/><polygon points="245.98,452.508 245.98,472.576 207.28,442.705 170.27,109.018 197.33,118.557 233.28,442.705  "/></g><g opacity="0.3"><polygon fill="#FFFFFF" points="306.711,90.941 242.98,113.401 255.98,117.981 332.711,90.941 255.98,31.72 242.98,41.75  "/><polygon fill="#FFFFFF" points="265.98,452.471 265.98,472.539 304.68,442.67 341.69,108.981 314.631,118.52 278.68,442.67  "/></g><g><polygon fill="none" points="255.999,123.295 343.067,92.61 255.999,25.418 168.931,92.61  "/><polygon fill="none" points="250.999,132.137 164.443,101.633 202.568,445.348 250.999,482.725  "/><polygon fill="none" points="260.999,132.137 260.999,482.725 309.43,445.348 347.555,101.633  "/><path d="M356.457,90.311l-97.4-75.168c-1.802-1.389-4.313-1.387-6.109,0l-97.403,75.168   c-1.381,1.066-2.104,2.775-1.915,4.51l39.237,353.74c0.15,1.348,0.841,2.578,1.915,3.406l58.166,44.889   c0.9,0.695,1.977,1.043,3.055,1.043c1.077,0,2.155-0.348,3.058-1.043l58.166-44.889c1.071-0.828,1.766-2.061,1.915-3.406   l39.234-353.74C358.564,93.086,357.839,91.377,356.457,90.311z M255.999,25.418l87.068,67.189l-87.068,30.688L168.931,92.61   L255.999,25.418z M164.443,101.633l86.556,30.504v350.588l-48.431-37.377L164.443,101.633z M309.43,445.348l-48.434,37.377V132.137   l86.559-30.504L309.43,445.348z" fill="#010101"/></g><circle cx="427.128" cy="357.476" fill="#D712F9" r="12"/><circle cx="384.626" cy="423.203" fill="#D712F9" r="12"/><circle cx="461.03" cy="210.14" fill="#D712F9" r="12"/><circle cx="405.876" cy="86.887" fill="#D712F9" r="12"/><circle cx="129.597" cy="43.757" fill="#D712F9" r="12"/><circle cx="57.601" cy="219.387" fill="#D712F9" r="12"/><circle cx="141.597" cy="369.476" fill="#D712F9" r="12"/><circle cx="69.601" cy="435.203" fill="#D712F9" r="12"/><polygon fill="#FECD0E" points="468.731,435.475 482.28,415.073 461.302,427.5 440.899,413.955 453.327,434.935 439.78,455.335   460.76,442.907 481.158,456.45 "/><polygon fill="#FECD0E" points="53.302,345.744 66.851,325.345 45.87,337.772 25.47,324.229 37.898,345.204 24.351,365.607   45.329,353.181 65.729,366.724 "/><polygon fill="#FECD0E" points="110.552,118.288 124.101,97.886 103.12,110.313 82.72,96.77 95.148,117.748 81.601,138.148   102.579,125.722 122.979,139.265 "/><polygon fill="#FECD0E" points="131.802,262.153 145.351,241.751 124.37,254.178 103.97,240.635 116.398,261.613 102.851,282.013   123.829,269.587 144.229,283.13 "/><polygon fill="#FECD0E" points="401.577,219.656 415.126,199.256 394.145,211.683 373.745,198.14 386.173,219.117 372.626,239.518   393.604,227.092 414.004,240.635 "/></svg>