<svg width="20" height="19.84" xmlns="http://www.w3.org/2000/svg">
 <g>
  <title>background</title>
  <rect x="-1" y="-1" width="22" height="21.84" id="canvas_background" fill="none"/>
 </g>

 <g>
  <title>Layer 1</title>
  <path stroke-width="0" d="m10.357496,10l3.89,-3.89a0.37,0.37 0 1 0 -0.53,-0.53l-3.89,3.85l-3.89,-3.89a0.37,0.37 0 1 0 -0.53,0.53l3.89,3.93l-3.89,3.85a0.37,0.37 0 0 0 0,0.53a0.34,0.34 0 0 0 0.26,0.11a0.36,0.36 0 0 0 0.27,-0.11l3.89,-3.89l3.89,3.89a0.34,0.34 0 0 0 0.26,0.11a0.35,0.35 0 0 0 0.27,-0.11a0.37,0.37 0 0 0 0,-0.53c-1.29667,-1.28333 -2.59333,-2.56667 -3.89,-3.85z" id="svg_1" stroke="#000000" fill="#000000"/>
 </g>
</svg>